<svg xmlns="http://www.w3.org/2000/svg" viewBox="0.0471273 0.0195 51.93 49.96">
  <path d="M 12.6797 11.3164 L 0.3125 22.6016 L 0.1523 23.3164 C 0.0078 23.9961 0.0078 24.0742 0.1797 24.75 C 0.5547 26.2031 0.5469 26.1953 1.332 26.5781 C 1.9922 26.9023 2.0938 26.9297 3.2539 26.9883 C 3.9336 27.0156 4.9141 27.0742 5.4531 27.1016 L 6.4141 27.1602 L 6.4141 48.8359 L 6.8125 49.4063 L 7.2188 49.9727 L 14.293 49.9805 L 21.3672 49.9805 L 21.9141 49.4922 L 22.4531 49.0078 L 22.3945 42.2305 L 22.332 35.4531 L 25.9531 35.4727 L 29.5742 35.5039 L 29.5391 41.9141 C 29.5 49.2266 29.4805 49.0234 30.2266 49.6445 L 30.6328 49.9805 L 37.0664 49.9805 C 44.6133 49.9805 44.3594 50.0078 45.168 49.1406 L 45.6602 48.6133 L 45.6602 27.0273 L 46.9141 27.082 C 47.8008 27.1328 48.4531 27.1133 49.1992 27.0078 L 50.2266 26.8633 L 51.0469 26.0234 L 51.8594 25.1797 L 51.9141 24.2734 L 51.9727 23.3672 L 49.3867 20.7383 L 46.793 18.1094 L 46.793 4.1484 L 45.8867 3.25 L 39.9453 3.1836 L 34 3.125 L 33.5078 3.3945 L 33.0273 3.6602 L 32.9727 5.6289 L 30 2.9141 C 26.6875 -0.1133 27.1602 0.1914 25.5664 0.0664 L 25.0469 0.0195 Z M 12.6797 11.3164" fill="#000000"/>
</svg>